<?xml version="1.0" standalone="no"?>
<!DOCTYPE svg PUBLIC "-//W3C//DTD SVG 20010904//EN"
 "http://www.w3.org/TR/2001/REC-SVG-20010904/DTD/svg10.dtd">
<svg version="1.0" xmlns="http://www.w3.org/2000/svg"
 width="899.000000pt" height="1599.000000pt" viewBox="0 0 899.000000 1599.000000"
 preserveAspectRatio="xMidYMid meet">
<metadata>
Created by potrace 1.16, written by Peter Selinger 2001-2019
</metadata>
<g transform="translate(0.000000,1599.000000) scale(0.100000,-0.100000)"
fill="#000000" stroke="none">
<path d="M0 13475 l0 -2515 118 -1 c64 -1 109 -3 100 -6 -10 -2 -18 -11 -18
-18 0 -22 -13 -25 -84 -14 -37 5 -78 6 -92 3 l-24 -6 1 -159 c0 -92 5 -157 10
-153 5 3 9 14 9 25 0 20 28 26 46 10 5 -5 32 -11 61 -13 45 -3 50 -1 42 14
-10 18 6 28 47 28 13 0 24 5 24 11 0 7 -15 10 -40 7 -22 -2 -40 0 -40 4 0 10
66 21 84 15 12 -5 13 -1 6 18 -7 19 -6 25 5 25 9 0 12 -6 8 -17 -4 -11 -3 -14
6 -9 7 5 10 14 7 22 -3 8 8 27 25 43 28 27 29 30 13 45 -9 10 -13 20 -10 24 4
3 11 0 16 -7 7 -12 11 -11 25 2 9 10 13 17 8 17 -4 0 1 7 11 15 21 16 16 32
-6 19 -24 -15 -48 -11 -48 8 0 14 -5 18 -19 13 -24 -7 -51 4 -51 22 0 11 17
14 88 13 48 -1 92 -1 97 -1 6 1 16 10 23 22 8 12 10 19 5 16 -5 -3 -24 -2 -43
3 -24 5 -28 8 -12 9 22 1 32 21 10 21 -6 0 -4 6 5 13 14 10 15 18 7 47 -13 47
-12 59 4 38 16 -22 35 -23 51 -2 10 15 16 15 62 -2 l51 -18 20 24 c10 13 17
32 14 43 -3 12 -7 15 -12 7 -8 -13 -70 -23 -70 -10 0 4 6 11 12 14 7 3 -5 4
-27 1 -22 -3 -59 -7 -82 -10 -39 -5 -43 -3 -43 16 0 21 4 21 64 17 35 -3 69
-2 76 2 7 5 31 2 52 -6 27 -9 46 -11 58 -4 9 5 30 9 46 9 127 0 153 3 159 22
4 10 12 20 18 20 7 1 23 2 37 3 14 0 37 9 51 19 15 10 49 22 75 27 134 25 158
33 188 67 26 27 38 33 73 33 23 0 43 5 45 11 2 6 32 14 66 18 49 6 68 13 87
33 33 36 56 41 118 28 43 -9 60 -8 89 5 20 8 39 19 42 24 3 5 36 8 73 6 73 -3
99 3 67 16 -12 5 -5 6 18 3 20 -3 52 -1 71 5 20 7 67 13 105 14 39 0 68 5 66
9 -7 11 8 10 26 -2 12 -8 12 -10 1 -10 -8 0 -12 -3 -8 -6 3 -3 28 1 54 10 52
17 140 27 241 25 35 0 69 4 76 10 7 6 35 15 62 20 38 7 52 6 65 -5 12 -11 31
-12 100 -4 245 28 265 29 261 12 -1 -9 5 -8 23 4 25 16 165 29 165 15 0 -4
-11 -18 -24 -30 -14 -13 -34 -47 -46 -76 -15 -37 -26 -52 -36 -48 -16 6 -18
-10 -4 -37 10 -18 12 -18 70 8 55 25 61 30 71 70 7 24 17 46 23 48 7 3 12 20
13 39 1 19 -3 32 -8 29 -13 -7 -49 5 -49 17 0 6 65 9 173 8 94 -1 190 3 212 9
50 13 257 14 309 0 29 -7 47 -6 75 5 23 10 75 15 148 15 85 1 120 5 145 18 21
11 54 16 93 16 56 -1 93 7 205 45 25 9 55 15 68 14 13 0 34 6 47 15 13 9 55
18 92 21 37 2 78 11 90 19 14 9 49 14 92 14 52 0 80 5 106 20 20 11 64 25 98
30 34 6 85 15 112 20 89 19 152 23 159 11 12 -18 30 -13 128 33 80 38 104 44
173 48 58 3 92 11 125 28 34 18 63 24 120 25 63 2 84 7 137 35 51 27 75 33
150 38 67 4 98 11 130 29 47 26 65 30 203 42 52 5 113 16 135 26 27 12 55 16
90 12 27 -3 84 1 125 8 41 7 118 16 170 20 52 4 115 14 140 21 53 16 90 18 90
4 0 -5 -10 -10 -22 -10 -16 -1 -32 -14 -50 -44 -16 -24 -28 -49 -28 -55 0 -6
-4 -11 -10 -11 -5 0 -10 5 -10 10 0 6 -8 10 -19 10 -10 0 -24 7 -31 15 -14 17
-71 47 -78 41 -2 -3 8 -15 23 -28 15 -13 33 -28 39 -34 6 -6 16 -11 21 -12 6
-1 11 -12 13 -24 3 -22 3 -22 -10 -4 -14 17 -15 17 -32 0 -15 -14 -19 -15 -27
-3 -7 12 -9 12 -9 0 0 -11 -3 -11 -15 -1 -12 10 -15 9 -15 -4 0 -10 -4 -15 -9
-11 -19 11 -51 -38 -51 -76 0 -21 -5 -41 -11 -44 -5 -4 -8 -12 -6 -18 2 -7 -7
-20 -19 -30 -36 -28 -100 -9 -144 42 -22 26 -44 41 -59 41 -20 0 -22 -5 -21
-37 3 -54 2 -57 -15 -43 -12 10 -16 9 -21 -3 -8 -22 5 -40 23 -33 20 8 43 -11
43 -35 0 -10 9 -23 20 -29 11 -6 20 -15 20 -20 0 -15 -44 -12 -66 5 -11 8 -33
12 -54 10 -19 -2 -65 -7 -103 -10 l-67 -6 -38 39 c-20 21 -43 50 -51 65 -18
35 -31 34 -33 0 -3 -53 2 -88 19 -120 13 -25 15 -41 7 -79 -5 -26 -14 -49 -20
-51 -6 -2 -24 7 -40 19 -21 17 -55 27 -136 38 -70 10 -108 12 -108 5 0 -7 -3
-7 -8 0 -9 13 -40 12 -75 -3 -28 -12 -77 -7 -77 7 0 4 -10 7 -21 7 -30 -1 -35
20 -8 27 18 5 20 9 10 21 -7 8 -19 12 -27 9 -8 -3 -14 0 -14 6 0 6 -11 11 -24
11 -17 0 -26 -8 -34 -32 -5 -18 -10 -25 -11 -15 -1 9 -5 17 -10 17 -5 0 -12
10 -16 23 -4 13 -8 17 -12 10 -5 -15 -39 -17 -47 -4 -7 10 -25 9 -43 -2 -7 -5
-17 -6 -22 -2 -6 3 -14 -2 -19 -11 -8 -15 -13 -13 -41 15 -17 17 -32 26 -32
19 -1 -7 -5 1 -9 17 -6 25 -8 26 -9 7 -1 -14 -11 -27 -28 -34 -16 -7 -39 -21
-52 -32 -13 -12 -21 -16 -18 -10 12 20 -35 25 -52 5 -20 -22 -51 -34 -51 -20
0 8 -13 9 -37 4 -21 -4 -49 -7 -63 -7 -20 1 -29 -7 -44 -38 -17 -35 -20 -38
-31 -23 -11 15 -13 15 -24 -5 -7 -13 -16 -20 -21 -17 -5 3 -11 1 -15 -5 -13
-21 -25 -9 -19 18 8 28 51 102 69 114 5 4 6 10 2 14 -3 4 -24 -12 -45 -35 -42
-46 -55 -50 -75 -21 -14 20 -15 18 -21 -25 -8 -49 -6 -48 -81 -28 -17 5 -16 2
6 -21 18 -17 25 -34 22 -46 -5 -20 -14 -19 -45 8 -10 8 -35 14 -58 13 -62 -2
-70 -4 -70 -13 0 -5 -9 -18 -20 -30 -18 -19 -20 -20 -20 -4 0 10 -5 14 -11 10
-6 -3 -8 -15 -6 -26 4 -15 1 -19 -16 -16 -13 2 -23 13 -27 28 -5 22 -12 25
-49 26 -40 0 -42 -1 -36 -23 4 -16 -1 -33 -14 -49 l-20 -25 -11 22 c-7 13 -9
38 -5 64 4 28 2 46 -5 50 -6 4 -9 13 -6 21 6 16 -3 18 -22 5 -10 -6 -12 -25
-8 -74 4 -40 2 -68 -4 -72 -6 -4 -7 -11 -4 -17 4 -7 2 -8 -4 -4 -7 4 -12 14
-12 22 0 8 -4 13 -9 9 -5 -3 -12 -1 -16 5 -11 17 -31 11 -43 -12 -6 -13 -18
-44 -27 -70 l-18 -47 -17 22 c-9 12 -22 36 -28 52 l-12 30 5 -30 c2 -16 6 -55
9 -85 5 -49 4 -52 -6 -27 -11 25 -44 36 -40 12 2 -5 5 -27 9 -47 6 -38 17 -49
26 -25 3 7 6 5 6 -5 1 -10 6 -18 11 -18 6 0 10 8 11 18 0 13 2 14 5 2 3 -8 17
-43 31 -78 20 -50 23 -65 13 -77 -12 -15 -11 -16 13 -19 7 0 20 -35 30 -81 10
-44 22 -96 27 -115 5 -19 12 -51 15 -71 4 -27 13 -39 38 -52 17 -10 51 -28 74
-42 36 -22 46 -24 63 -13 21 13 27 28 11 28 -11 0 -4 33 15 77 8 17 14 37 14
45 0 7 4 19 9 27 8 13 29 -1 87 -57 8 -7 14 -11 14 -7 0 7 134 -86 138 -97 2
-5 9 -8 16 -8 7 0 21 -8 32 -17 23 -20 52 -40 74 -50 8 -4 23 -14 32 -22 9 -9
34 -25 55 -36 54 -29 59 -35 67 -90 8 -54 24 -109 62 -220 13 -38 38 -128 54
-200 19 -81 28 -109 24 -75 -3 30 -12 87 -20 125 -28 130 -34 189 -21 197 8 5
9 8 1 8 -18 0 -44 63 -37 90 4 16 3 21 -5 16 -8 -5 -12 3 -12 23 0 16 -4 32
-9 35 -24 15 -15 116 12 116 4 0 7 9 7 20 0 11 5 20 10 20 6 0 10 6 10 13 0 8
9 22 20 32 11 10 20 24 20 31 0 8 10 25 23 40 12 14 35 49 50 77 16 29 44 68
63 87 19 19 55 58 80 87 31 35 51 50 65 48 10 -2 23 3 27 12 7 12 13 13 30 4
27 -15 32 -14 32 4 0 8 9 15 19 15 11 0 23 5 26 10 3 6 15 10 25 10 13 0 18 5
13 15 -3 9 3 25 12 35 10 11 16 23 12 26 -3 3 1 21 9 41 8 19 12 44 8 55 -3
11 -2 18 2 15 5 -3 8 14 6 36 -3 41 -1 43 45 71 54 33 82 63 83 88 0 42 76 62
139 35 14 -5 32 -9 39 -8 6 1 12 -2 12 -8 0 -10 205 -7 255 4 40 9 105 46 105
60 0 6 11 22 25 35 14 13 25 20 25 16 0 -4 9 -2 19 4 14 7 28 7 48 -2 15 -6
33 -10 40 -9 6 1 14 -3 18 -9 3 -5 17 -10 29 -10 13 0 30 -9 37 -20 22 -33
119 -35 165 -4 19 13 41 24 49 24 8 0 15 4 15 10 0 10 63 30 97 30 12 0 33
-10 47 -22 13 -13 38 -34 55 -48 30 -24 41 -50 21 -50 -5 0 -10 -10 -10 -22 0
-13 -9 -34 -20 -48 -11 -14 -20 -39 -20 -57 0 -17 -6 -33 -12 -36 -9 -3 -7 -7
6 -12 11 -5 21 -3 27 6 8 12 11 12 19 -1 7 -10 12 -12 17 -4 5 6 26 10 48 10
22 0 54 3 70 7 l30 7 21 -92 c36 -156 40 -165 117 -321 77 -156 97 -213 116
-328 13 -81 14 -102 2 -95 -5 4 -11 1 -13 -6 -3 -7 -9 -8 -18 -3 -24 15 -49
13 -43 -2 4 -9 -3 -16 -16 -20 -22 -6 -28 -27 -10 -39 8 -4 7 -9 -2 -15 -7 -4
-14 -20 -15 -36 -1 -15 -7 -27 -13 -25 -6 1 -11 -7 -11 -18 0 -11 -7 -23 -15
-26 -10 -4 -13 -13 -10 -25 4 -11 3 -29 0 -40 -6 -17 -9 -19 -16 -8 -6 10 -9
7 -9 -11 -1 -22 -2 -23 -11 -7 -14 24 -26 14 -27 -24 -1 -29 0 -30 14 -13 14
18 15 17 9 -10 -3 -17 -12 -35 -20 -40 -7 -6 -16 -28 -19 -48 -4 -21 -11 -38
-16 -38 -14 0 -12 -27 3 -34 6 -3 3 -4 -8 -1 -27 7 -52 -30 -34 -51 15 -19 4
-30 -15 -15 -12 10 -15 7 -21 -19 -4 -16 -11 -28 -16 -24 -5 3 -9 0 -9 -6 0
-6 6 -13 14 -16 12 -5 12 -8 -2 -23 -21 -21 -50 -15 -110 23 -23 14 -46 26
-52 26 -22 0 -8 -16 35 -39 24 -13 47 -32 50 -42 4 -11 11 -17 16 -14 5 4 9
-1 9 -9 0 -9 -4 -16 -10 -16 -5 0 -10 -9 -10 -20 0 -12 -7 -20 -16 -20 -11 0
-15 -6 -11 -19 5 -20 -25 -61 -43 -61 -6 0 -10 -14 -10 -31 0 -17 -5 -39 -10
-49 -9 -16 -8 -18 6 -13 25 9 12 -20 -14 -32 -12 -5 -24 -22 -27 -37 -4 -16
-11 -28 -16 -28 -5 0 -9 -7 -9 -15 0 -8 -4 -15 -10 -15 -5 0 -8 -10 -6 -22 1
-13 -2 -31 -8 -40 -7 -12 -6 -22 4 -35 41 -50 42 -61 15 -119 -19 -41 -31 -54
-48 -55 -12 0 -16 -3 -9 -6 18 -7 15 -24 -5 -21 -12 2 -20 -10 -29 -46 -7 -27
-20 -53 -28 -58 -9 -5 -16 -16 -16 -23 0 -24 -18 -17 -23 8 -3 16 -5 13 -6
-10 0 -18 -5 -33 -11 -33 -5 0 -10 -15 -10 -32 l-1 -33 -16 35 c-12 27 -17 31
-20 17 -3 -10 -1 -23 5 -30 6 -8 3 -18 -9 -29 -16 -15 -18 -15 -24 0 -5 14 -7
14 -15 2 -6 -8 -10 -25 -10 -37 0 -13 -4 -23 -10 -23 -5 0 -10 -16 -10 -35 0
-25 -7 -43 -24 -58 -15 -14 -26 -39 -30 -69 -7 -47 -22 -63 -78 -84 -13 -4
-16 -13 -12 -29 4 -15 0 -27 -13 -36 -10 -8 -18 -24 -19 -36 0 -13 -2 -42 -3
-65 -3 -37 -4 -39 -10 -18 -6 19 -10 5 -18 -55 -7 -58 -7 -82 1 -88 8 -5 6
-11 -5 -20 -24 -18 -33 -55 -17 -74 11 -14 10 -16 -14 -11 -33 6 -37 -7 -8
-22 22 -12 17 -35 -6 -26 -10 4 -14 -4 -13 -32 1 -40 -13 -86 -30 -97 -6 -3
-11 -19 -11 -35 0 -34 -27 -48 -46 -23 -12 16 -13 11 -14 -35 0 -29 -7 -66
-14 -81 -8 -15 -12 -38 -9 -49 4 -18 1 -22 -16 -22 -11 0 -21 -3 -21 -7 -5
-67 -12 -109 -20 -117 -5 -5 -10 -26 -10 -47 0 -27 -6 -41 -25 -55 -21 -16
-24 -25 -20 -54 4 -25 3 -29 -3 -15 -8 17 -10 14 -16 -18 -4 -21 -10 -36 -14
-33 -4 2 -8 -10 -9 -26 -1 -17 -7 -35 -12 -42 -5 -6 -12 -30 -16 -54 -4 -23
-13 -49 -21 -56 -20 -20 -19 -43 1 -26 12 10 15 10 15 -4 0 -9 -4 -16 -10 -16
-5 0 -10 -6 -10 -14 0 -31 -34 -116 -47 -116 -7 0 -13 -10 -13 -21 0 -17 3
-19 14 -10 18 15 34 -5 17 -22 -6 -6 -11 -26 -11 -44 0 -21 -5 -33 -14 -33 -9
0 -12 -9 -9 -27 4 -24 3 -25 -7 -10 -16 25 -30 12 -30 -29 0 -22 -5 -34 -14
-34 -8 0 -16 -7 -19 -14 -4 -10 -1 -13 8 -10 27 11 38 -7 15 -23 -19 -13 -24
-13 -31 -2 -9 15 -13 -11 -9 -58 1 -13 -6 -30 -14 -39 -9 -8 -16 -21 -16 -29
0 -7 -11 -20 -24 -29 -17 -11 -26 -27 -29 -53 -2 -21 -3 -12 -1 20 2 31 0 57
-5 57 -12 0 -20 -32 -27 -112 -5 -47 -11 -68 -20 -68 -8 0 -14 -5 -14 -10 0
-6 -3 -9 -7 -9 -19 3 -22 -3 -13 -27 7 -19 6 -31 -4 -45 -10 -15 -15 -17 -18
-7 -3 7 -8 -2 -12 -19 -4 -18 -11 -33 -15 -33 -14 0 -101 -92 -101 -107 0 -8
-6 -13 -13 -11 -14 3 -57 -36 -57 -53 0 -5 -4 -8 -9 -5 -10 7 -92 -79 -84 -88
4 -3 -1 -6 -9 -6 -19 0 -30 -24 -22 -45 7 -18 -17 -20 -35 -2 -11 10 -12 8 -3
-8 7 -14 6 -23 -3 -32 -7 -6 -16 -9 -19 -6 -3 4 -6 -2 -6 -13 -1 -17 -2 -18
-13 -2 -9 11 -18 13 -29 7 -13 -7 -16 0 -22 45 -3 30 -6 486 -6 1014 l0 959
178 170 c97 93 193 184 212 201 96 84 214 201 209 207 -4 3 -20 -7 -35 -22
-16 -15 -97 -91 -179 -168 -251 -235 -276 -258 -325 -307 -26 -27 -51 -48 -55
-48 -4 0 -5 184 -4 409 2 226 1 413 -2 416 -11 10 -19 -214 -20 -527 0 -170
-3 -308 -6 -308 -9 0 -131 112 -358 328 -33 32 -71 66 -85 76 -31 24 234 -239
355 -352 86 -80 89 -84 89 -125 -1 -23 -2 -487 -4 -1032 -1 -544 -4 -1010 -7
-1034 -4 -30 -8 -39 -14 -30 -6 10 -9 6 -9 -14 0 -27 -1 -27 -22 -13 -40 28
-131 112 -363 331 -157 149 -175 164 -175 142 0 -7 60 -69 132 -138 73 -68
159 -149 190 -179 31 -30 79 -76 107 -102 36 -34 49 -53 45 -65 -4 -13 -3 -14
4 -5 7 10 16 8 41 -13 27 -24 31 -32 29 -71 -2 -24 -6 -44 -10 -44 -5 0 -8
-11 -8 -24 0 -13 -7 -27 -16 -30 -9 -4 -14 -9 -11 -13 4 -3 1 -15 -4 -26 -9
-16 -13 -17 -20 -6 -8 13 -13 -14 -12 -58 1 -7 -5 -13 -13 -13 -8 0 -14 -7
-14 -16 0 -8 -4 -13 -9 -9 -16 10 -20 -10 -12 -61 l8 -49 12 32 c11 27 17 32
44 31 18 -1 35 -6 39 -12 4 -7 13 -4 26 7 18 16 32 14 32 -5 0 -5 -5 -6 -10
-3 -7 4 -10 -6 -8 -29 2 -38 14 -48 21 -19 2 10 3 5 1 -11 -2 -16 -4 -54 -5
-85 0 -40 -3 -50 -9 -36 -8 18 -9 17 -9 -6 -1 -18 -8 -28 -21 -32 -15 -4 -20
-13 -19 -34 l2 -28 4 28 c2 15 10 27 18 27 10 0 12 -9 9 -32 -3 -18 0 -46 6
-63 l10 -30 -5 35 c-4 27 -3 32 7 22 20 -20 18 -169 -3 -156 -5 3 -8 -19 -7
-48 1 -50 2 -51 5 -10 2 23 8 42 12 42 10 0 8 -187 -2 -197 -4 -3 -7 2 -7 13
0 15 -2 16 -9 4 -6 -8 -7 -19 -4 -24 4 -5 -8 0 -26 13 -19 14 -30 29 -27 37 3
8 1 14 -3 14 -5 0 -11 -5 -13 -11 -2 -6 -12 0 -23 12 -15 16 -16 21 -5 17 11
-4 16 0 16 13 0 17 -2 17 -17 3 -22 -20 -25 -19 -162 96 -23 20 -55 41 -70 48
-15 6 -30 18 -33 26 -3 8 -30 33 -59 55 -29 22 -66 52 -81 66 -30 28 -57 34
-48 10 6 -14 94 -92 206 -182 29 -24 85 -68 123 -99 39 -31 69 -61 67 -66 -1
-5 2 -7 8 -3 12 7 76 -43 72 -57 -1 -4 7 -8 19 -8 11 0 17 -4 14 -10 -3 -5 0
-7 7 -5 22 9 58 -38 63 -81 2 -21 7 -127 10 -235 l6 -196 -25 -5 c-15 -3 -26
-1 -26 3 0 5 -22 9 -50 9 -47 0 -130 9 -270 30 -36 6 -90 12 -120 15 -54 6
-87 14 -163 41 -48 18 -50 18 -44 -5 3 -11 0 -21 -7 -23 -26 -8 -643 11 -668
21 -29 11 -74 84 -69 113 1 10 -3 18 -9 18 -7 0 -10 -5 -8 -12 5 -14 -31 -52
-40 -43 -4 4 1 13 11 20 42 30 4 25 -188 -27 -46 -13 -242 -15 -297 -5 -56 12
-68 42 -79 210 -5 78 -12 161 -15 184 l-6 41 56 13 c31 7 59 16 62 21 7 11 -5
10 -51 -7 -78 -28 -78 -28 -72 88 3 56 8 113 12 127 6 22 5 23 -5 7 -15 -24
-29 -211 -18 -257 4 -19 12 -103 18 -187 6 -84 15 -167 21 -185 5 -18 9 -36 9
-39 0 -9 -88 7 -140 25 -25 9 -53 16 -62 16 -10 0 -18 3 -18 8 0 4 -17 8 -37
9 -41 1 -62 5 -78 14 -5 4 -23 9 -40 13 -42 10 -130 70 -163 112 -28 36 -50
47 -33 17 5 -10 26 -36 45 -57 20 -22 36 -44 36 -48 0 -5 6 -6 12 -2 7 4 10 3
5 -1 -14 -16 -51 -16 -123 0 -38 8 -106 22 -150 29 -187 33 -391 78 -422 95
-11 6 -31 11 -44 10 -23 0 52 -31 121 -49 19 -5 37 -12 40 -17 3 -4 19 -9 36
-11 16 -2 35 -8 42 -14 7 -6 13 -7 13 -3 0 4 6 3 13 -3 6 -5 35 -13 62 -17 87
-12 246 -61 253 -77 2 -5 19 -8 38 -8 20 0 44 -4 54 -10 10 -5 36 -12 57 -16
21 -3 43 -12 49 -19 6 -8 42 -19 79 -25 38 -6 74 -15 80 -19 10 -8 143 -34
182 -36 11 0 27 -6 35 -11 7 -6 41 -17 76 -24 36 -7 62 -18 62 -25 0 -8 21
-15 53 -19 74 -9 81 -11 97 -21 12 -7 10 -11 -10 -16 -23 -6 -23 -7 7 -8 26
-1 31 2 26 15 -4 12 -2 15 8 12 8 -3 13 -15 13 -26 -2 -24 6 -28 23 -11 17 17
73 2 66 -18 -4 -11 -2 -14 8 -11 8 3 13 10 12 16 -2 6 14 11 37 10 38 0 48
-17 12 -19 -14 0 -13 -2 3 -9 29 -12 35 -12 35 4 0 7 11 16 25 18 14 3 25 1
25 -3 0 -5 -8 -9 -17 -9 -15 0 -16 -2 -3 -10 8 -5 35 -10 60 -10 29 0 40 -3
31 -9 -17 -11 -7 -16 44 -26 22 -4 43 -12 47 -18 3 -5 22 -10 42 -9 27 1 34
-2 29 -13 -3 -8 0 -15 6 -15 6 0 11 5 11 10 0 6 5 10 11 10 5 0 8 -4 4 -9 -11
-19 17 -23 30 -5 14 18 14 18 15 -3 0 -13 5 -23 10 -23 6 0 10 7 10 15 0 8 5
15 10 15 6 0 10 -9 10 -21 0 -16 4 -19 21 -14 14 5 25 2 30 -6 7 -12 9 -12 9
-1 0 11 14 12 68 6 37 -3 77 -10 90 -15 15 -6 22 -5 22 4 0 7 5 5 10 -4 6 -11
30 -19 67 -23 58 -7 109 -26 70 -26 -10 0 -15 -5 -12 -10 4 -6 14 -10 23 -9
26 4 86 -12 94 -25 6 -8 8 -8 8 1 0 8 12 11 36 8 19 -3 33 -1 30 4 -3 5 1 11
9 15 17 6 45 -2 45 -14 0 -11 33 -19 140 -31 52 -6 104 -13 115 -14 26 -3 59
-16 66 -27 10 -14 108 -16 120 -2 12 15 78 12 88 -3 5 -9 51 -20 116 -29 11
-1 20 -3 20 -4 0 -1 18 -3 40 -6 22 -2 60 -7 85 -10 25 -3 71 -8 103 -9 32 -2
69 -11 82 -19 28 -19 65 -21 65 -5 0 8 5 8 15 -1 8 -7 39 -14 67 -16 29 -2 67
-7 83 -10 42 -7 154 -16 191 -15 20 0 34 -5 38 -14 3 -9 18 -15 37 -15 26 0
30 3 24 18 -11 28 -11 34 2 39 7 2 13 -7 15 -24 2 -22 9 -29 31 -31 22 -3 27
1 27 17 0 12 5 21 11 21 6 0 8 -9 4 -20 -4 -14 -1 -22 10 -26 24 -10 97 -9
119 1 14 6 17 5 12 -3 -4 -8 0 -12 10 -12 14 0 15 3 6 12 -16 16 -15 23 4 42
20 21 44 20 44 0 0 -12 4 -14 13 -7 18 15 77 24 77 13 0 -6 31 -10 69 -10 39
0 73 -5 76 -10 3 -6 0 -10 -7 -11 -7 0 -2 -5 11 -10 15 -6 21 -15 17 -24 -9
-24 7 -17 28 12 17 23 17 26 3 20 -9 -3 -17 -3 -17 2 0 5 11 11 25 13 14 3 25
2 25 -2 0 -4 11 -5 25 -2 16 3 33 -2 46 -14 19 -17 20 -17 13 2 -7 18 -7 18
12 2 16 -14 31 -16 72 -11 28 3 49 10 46 14 -3 5 10 9 28 9 18 0 45 6 60 14
22 12 29 12 38 1 7 -8 29 -11 68 -9 139 10 274 2 379 -21 18 -4 23 -1 23 14 0
16 8 19 72 19 46 1 76 -4 81 -11 6 -8 7 -6 3 6 -4 12 0 17 13 17 11 0 26 3 35
6 10 4 16 1 16 -9 0 -9 7 -14 18 -12 9 2 20 4 25 4 4 1 16 10 27 21 13 13 20
16 20 7 0 -10 13 -13 43 -13 28 1 41 -3 40 -11 -2 -7 16 -17 40 -23 23 -6 56
-16 73 -21 44 -13 47 -12 41 20 -6 28 -5 29 27 21 19 -4 40 -4 47 1 10 6 11 9
2 9 -7 0 -13 5 -13 10 0 7 23 8 64 4 42 -4 66 -3 70 5 4 6 15 11 24 11 14 0
13 -4 -5 -18 -16 -12 -21 -23 -17 -40 7 -24 24 -30 24 -8 0 7 9 16 21 19 13 4
18 10 14 18 -5 7 -3 9 6 5 8 -3 22 -9 32 -12 9 -4 17 -9 17 -13 0 -4 7 -16 15
-27 14 -18 14 -18 15 4 0 13 -4 20 -10 17 -5 -3 -10 0 -10 7 0 9 13 15 36 16
29 2 34 -1 32 -15 -2 -12 6 -19 27 -24 21 -5 24 -7 10 -9 -25 -3 -25 -3 -50 5
-16 4 -15 3 3 -6 25 -14 29 -29 6 -29 -8 0 -12 -4 -9 -10 10 -16 21 -12 55 17
26 21 33 24 41 12 7 -11 9 -9 9 7 0 14 -8 24 -22 29 -22 7 -22 7 -3 12 10 3
21 0 23 -6 2 -6 10 -11 18 -11 8 0 24 -6 35 -12 17 -10 23 -10 26 0 3 6 11 12
19 12 9 0 12 -5 8 -12 -5 -8 -2 -9 10 -5 10 4 24 1 32 -8 9 -8 23 -15 32 -14
14 0 13 2 -3 9 -17 7 -17 9 -2 9 28 1 21 31 -8 31 -14 0 -25 5 -25 10 0 6 11
10 25 10 38 0 34 36 -5 45 -17 4 -28 11 -24 16 3 5 16 6 30 3 14 -4 24 -2 24
5 0 6 -5 11 -10 11 -19 0 -37 24 -32 42 2 10 1 29 -2 44 -5 20 -10 23 -21 14
-8 -6 -16 -7 -19 -2 -6 11 26 22 62 22 l22 0 0 914 0 914 -92 4 c-51 3 -95 2
-98 -2 -3 -4 -52 -8 -110 -8 -58 0 -177 -1 -265 -2 -88 -1 -169 1 -180 3 -11
2 -29 0 -39 -6 -14 -7 -22 -6 -30 4 -12 16 -67 13 -78 -3 -9 -16 -98 10 -98
28 0 10 -13 14 -40 14 -38 0 -40 1 -40 31 l0 32 -67 -8 c-87 -11 -325 -7 -333
4 -3 5 -18 13 -33 16 -15 4 -27 13 -27 21 0 8 -5 14 -11 14 -8 0 -9 11 -5 32
3 17 3 29 0 25 -4 -3 -20 1 -36 9 -17 9 -39 14 -49 11 -13 -3 -28 8 -53 40
-20 25 -33 50 -30 54 3 5 -1 6 -9 3 -8 -3 -19 2 -26 10 -10 12 11 14 161 14
109 1 177 -3 186 -10 9 -8 16 -6 27 8 14 18 16 18 29 2 14 -19 32 -25 21 -8
-4 6 7 10 27 9 18 -1 51 2 73 6 32 5 44 3 54 -9 10 -12 17 -13 27 -5 27 22
548 9 668 -17 21 -4 26 -3 21 6 -5 8 -1 11 11 9 11 -2 25 0 32 4 8 6 15 0 22
-17 6 -18 17 -26 33 -26 13 0 28 -5 34 -11 15 -15 33 -3 33 22 0 10 3 20 8 20
51 8 73 7 84 -5 23 -22 168 -46 168 -27 0 6 7 11 15 11 11 0 15 12 15 49 l0
50 -37 4 -38 4 38 1 c34 2 37 4 37 31 0 20 -6 31 -17 34 -17 4 -17 5 0 6 15 1
17 13 17 97 l0 96 -32 -9 c-18 -4 -58 -6 -89 -5 -31 1 -69 -2 -85 -8 -16 -7
-42 -13 -59 -15 -145 -16 -153 -17 -152 -3 1 40 -2 43 -48 40 -25 -2 -45 -8
-45 -13 0 -5 -21 -10 -47 -10 -27 -1 -40 -3 -30 -6 9 -2 17 -13 17 -23 0 -15
-7 -17 -47 -12 -58 6 -63 9 -32 21 22 9 22 10 4 10 -12 1 -26 6 -32 12 -8 8
-13 8 -17 0 -9 -14 -63 -14 -71 0 -4 6 -4 13 0 17 3 3 10 0 14 -7 12 -19 33
-3 29 22 -4 27 28 35 154 41 54 3 103 8 109 12 17 10 109 13 109 3 0 -5 -6 -9
-12 -9 -8 0 -6 -5 4 -10 10 -6 25 -7 40 -1 l23 10 -25 1 c-20 1 -15 5 20 17
47 16 54 17 188 29 45 4 82 11 82 15 0 5 7 9 15 9 12 0 15 16 15 80 l0 80 -46
0 c-40 0 -45 -2 -34 -15 10 -12 9 -16 -6 -22 -11 -3 -22 -11 -26 -17 -4 -6
-10 -3 -14 8 -4 11 -2 21 7 26 7 5 10 12 6 16 -12 12 14 34 42 34 50 0 71 11
71 36 0 16 -6 24 -17 24 -15 0 -16 -2 -3 -10 16 -10 15 -10 -152 -11 -54 -1
-98 -5 -98 -10 0 -5 -17 -11 -38 -15 -21 -3 -49 -15 -63 -26 l-24 -20 62 5
c49 4 63 2 68 -10 8 -23 -2 -28 -28 -15 -12 6 -44 10 -70 10 -26 0 -53 5 -60
11 -15 12 -55 4 -77 -14 -16 -14 -93 -14 -123 0 -12 5 -24 2 -37 -10 -18 -17
-82 -21 -175 -11 -43 4 -45 5 -45 16 0 6 11 8 25 4 25 -6 55 13 55 36 0 24 33
60 56 60 12 0 26 5 30 11 5 8 -6 9 -37 3 -24 -4 -52 -8 -61 -8 -10 0 -18 -3
-18 -7 0 -6 -91 0 -98 6 -7 6 24 45 35 45 7 0 13 5 13 10 0 6 -7 10 -15 10 -8
0 -15 5 -15 10 0 6 7 10 15 10 8 0 15 4 15 10 0 5 -46 8 -115 7 -63 -1 -116 1
-118 6 -1 5 -40 6 -85 2 -71 -7 -82 -10 -82 -26 0 -16 -8 -19 -50 -19 -28 0
-61 -6 -73 -14 -12 -8 -49 -18 -82 -22 -41 -5 -51 -9 -32 -12 16 -2 30 -9 33
-15 5 -13 94 -11 94 2 0 11 154 11 170 1 10 -6 7 -10 -13 -15 -21 -6 -27 -13
-27 -34 0 -15 -4 -31 -9 -36 -5 -6 -11 -19 -13 -29 -3 -19 -9 -21 -78 -31 -19
-3 -43 -8 -53 -11 -9 -3 -33 0 -53 6 -47 16 -114 5 -158 -25 -48 -32 -77 -35
-99 -8 -17 21 -17 23 11 75 17 31 40 59 57 67 24 12 26 15 13 25 -9 7 -12 17
-7 26 4 8 19 53 34 100 15 47 31 89 36 94 4 5 37 8 72 7 35 -1 75 3 89 10 18
8 39 8 71 1 40 -8 49 -7 63 9 9 11 25 19 36 19 10 0 18 5 18 10 0 6 30 10 71
10 39 0 107 9 151 20 44 12 88 18 97 15 24 -7 69 9 52 19 -6 4 -18 3 -26 -4
-10 -8 -18 -8 -33 1 -14 9 -34 9 -78 2 -32 -6 -77 -8 -99 -6 -22 2 -63 -2 -92
-10 -31 -8 -58 -10 -67 -5 -9 5 -24 5 -35 -2 -15 -7 -23 -6 -34 4 -15 15 -57
11 -68 -6 -3 -6 -33 -12 -65 -15 -44 -3 -64 -1 -79 11 -18 14 -18 15 -2 16 18
0 25 20 7 20 -16 0 -12 40 5 46 8 4 15 10 15 16 0 5 -5 6 -12 2 -8 -5 -9 -2
-5 10 4 10 7 24 7 33 0 9 6 13 14 10 7 -3 19 0 25 6 8 8 11 8 11 -1 0 -7 16
-12 40 -12 29 0 40 4 40 15 0 8 -8 15 -17 15 -15 0 -16 2 -3 10 10 6 16 6 19
-1 2 -6 10 -4 20 5 15 14 20 14 45 0 30 -15 96 -10 96 8 0 5 15 1 32 -10 47
-28 123 -36 154 -16 13 9 33 14 44 11 11 -3 23 -1 26 4 3 6 11 8 17 6 18 -6
47 12 47 28 0 17 42 20 70 5 14 -7 20 -6 24 7 4 9 1 20 -6 25 -8 6 -4 7 12 2
14 -4 29 -13 35 -21 8 -10 33 -12 110 -9 129 6 215 16 215 27 0 17 -25 21 -74
11 -113 -24 -163 -30 -196 -23 -32 7 -30 8 29 14 35 4 80 7 100 7 20 0 44 7
54 14 10 8 27 11 38 9 12 -3 45 0 75 7 39 10 69 11 107 4 39 -7 56 -7 65 2 6
7 35 15 64 19 29 3 65 8 81 11 20 4 27 2 27 -10 0 -9 5 -16 10 -16 6 0 10 7
10 16 0 8 13 20 30 25 30 11 30 11 30 90 0 64 -3 79 -15 79 -8 0 -15 -6 -15
-12 0 -7 -7 -4 -16 7 -15 19 -16 19 -29 2 -9 -13 -15 -15 -20 -7 -6 9 -10 9
-16 -1 -4 -7 -11 -10 -16 -6 -4 4 -2 17 5 27 10 16 9 21 -8 30 -11 6 -18 15
-15 21 4 5 -3 9 -15 9 -20 0 -50 21 -50 35 0 4 23 4 51 0 46 -6 51 -5 47 11
-2 15 -14 20 -48 22 -25 1 -52 6 -60 9 -8 4 -31 8 -50 9 -43 2 -131 21 -110
24 54 7 316 -11 358 -25 l22 -7 0 4036 0 4036 -4495 0 -4495 0 0 -2515z m8034
-915 c36 -8 55 -23 56 -43 0 -4 -9 -3 -19 3 -25 13 -71 13 -71 0 0 -15 -42
-50 -62 -50 -10 0 -18 -6 -18 -13 0 -8 -8 -21 -19 -31 -16 -14 -20 -15 -30 -2
-11 13 -18 12 -54 -11 -23 -14 -44 -27 -46 -29 -2 -2 -5 -25 -7 -51 -2 -26 -8
-57 -13 -68 -5 -11 -18 -41 -30 -67 -12 -27 -26 -48 -31 -48 -6 0 -9 3 -8 8 4
14 -24 82 -31 77 -5 -2 -14 6 -20 19 -11 20 -10 30 9 66 21 42 22 71 0 31 -6
-12 -17 -21 -25 -21 -8 0 -15 -7 -15 -15 0 -8 -5 -15 -10 -15 -6 0 -13 -8 -17
-17 -12 -32 -130 -133 -156 -133 -10 0 -26 80 -25 122 0 43 3 46 30 52 17 3
50 6 74 6 31 0 58 9 92 30 27 17 58 30 70 30 11 0 22 5 24 11 2 5 22 10 45 11
32 0 46 6 56 22 37 56 93 104 144 122 45 16 56 16 107 4z m-125 -560 c-7 -25
-19 -58 -26 -74 -14 -26 -13 -31 6 -57 12 -15 21 -32 21 -37 0 -5 10 -16 23
-25 20 -13 22 -22 21 -91 0 -45 -5 -81 -12 -88 -7 -7 -12 -23 -12 -37 -1 -15
-7 -43 -14 -63 -13 -35 -12 -38 17 -73 27 -33 29 -41 24 -86 -4 -28 -13 -64
-22 -81 -18 -38 -20 -88 -2 -88 8 0 7 -4 -3 -11 -11 -8 -5 -9 24 -4 39 6 98
41 143 84 31 29 36 26 28 -16 -8 -45 -90 -214 -107 -221 -5 -2 -8 -10 -8 -18
0 -8 -3 -14 -8 -14 -4 0 -13 -12 -20 -27 -7 -16 -37 -55 -68 -88 -44 -49 -56
-57 -64 -45 -8 12 -10 11 -10 -7 0 -13 -6 -23 -12 -23 -7 0 -24 -17 -37 -37
-18 -28 -25 -33 -32 -22 -5 9 -9 10 -9 2 0 -6 -3 -20 -6 -30 -5 -15 -4 -16 6
-3 8 10 10 11 8 2 -6 -24 -23 -14 -26 15 -8 74 -51 192 -122 338 -105 218
-133 308 -131 430 2 101 18 159 51 184 17 12 30 27 30 34 0 18 41 60 78 80 20
10 56 17 85 17 29 0 61 3 72 6 24 6 45 47 45 87 0 16 8 39 18 52 10 12 27 60
37 105 l20 83 3 -54 c2 -30 -2 -74 -9 -99z m-2249 -532 c0 -10 4 -17 9 -13 6
3 9 -3 8 -13 -1 -14 -7 -18 -22 -14 -18 5 -18 3 -6 -11 11 -14 11 -18 -2 -23
-9 -3 -13 -12 -10 -20 3 -9 -1 -14 -12 -14 -15 0 -15 -2 -4 -16 11 -14 10 -18
-6 -30 -26 -19 -33 -18 -38 9 -4 19 -4 18 -6 -5 0 -18 -7 -28 -16 -28 -8 0
-15 -6 -15 -12 -1 -7 -7 1 -15 17 -7 17 -14 24 -14 17 -2 -24 -21 -2 -21 24 0
13 -4 24 -8 24 -4 0 -6 -15 -4 -33 2 -22 -2 -38 -12 -46 -18 -15 -21 -56 -6
-66 6 -4 8 -16 4 -28 -6 -20 -6 -20 10 -4 22 21 27 22 19 0 -4 -11 -3 -14 5
-9 8 5 12 -1 12 -18 0 -14 4 -26 10 -26 5 0 7 13 4 29 -4 20 -2 30 10 34 10 4
16 1 16 -8 0 -18 17 -20 23 -2 2 6 8 9 12 5 7 -7 -32 -70 -47 -76 -4 -2 -17
-20 -29 -40 -12 -20 -38 -61 -58 -91 -75 -111 -110 -167 -127 -199 -9 -18 -18
-31 -19 -30 -8 8 -37 141 -50 230 -19 120 -19 122 -39 213 -8 39 -18 97 -21
130 -3 33 -8 72 -11 87 -5 23 -1 28 20 34 14 3 26 10 26 14 0 13 48 18 59 7 8
-8 11 -7 11 1 0 7 9 12 20 12 11 0 20 -5 20 -11 0 -16 24 -36 38 -31 7 2 16
-5 19 -17 7 -27 23 -27 23 -1 0 22 7 25 29 11 12 -8 12 -12 2 -25 -7 -8 -11
-20 -9 -27 2 -6 28 13 58 43 79 76 116 89 134 48 3 -8 4 -2 0 14 -5 26 -3 28
10 17 9 -8 16 -22 16 -33z m-506 -55 c6 -20 10 -52 26 -173 6 -47 15 -105 21
-130 11 -50 69 -361 69 -372 0 -11 -82 35 -108 60 -13 12 -40 31 -62 42 -21
11 -41 24 -45 30 -3 6 -34 29 -68 52 -34 23 -71 50 -81 60 -11 10 -25 18 -32
18 -7 0 -34 20 -60 45 -36 35 -44 49 -36 57 7 7 12 32 12 56 0 24 3 41 8 39 4
-3 7 14 7 37 0 29 7 48 22 63 13 13 20 29 17 36 -3 9 9 17 41 24 38 9 45 8 41
-3 -5 -14 5 -18 33 -14 8 1 20 -6 27 -15 16 -22 58 -11 74 21 8 13 19 24 27
24 7 0 13 5 13 10 0 6 7 10 15 10 8 0 15 9 15 20 0 25 17 26 24 3z m3549
-3333 c10 0 17 -8 17 -20 0 -17 7 -20 40 -20 22 0 40 -4 40 -10 0 -5 18 -10
40 -10 30 0 40 -4 40 -16 0 -14 -10 -15 -77 -9 -75 7 -268 16 -325 16 -16 0
-28 4 -28 9 0 6 5 10 11 10 6 0 19 10 30 23 16 19 20 20 30 7 8 -11 12 -12 16
-2 6 14 42 16 76 3 14 -6 29 -6 38 0 10 6 10 9 2 9 -7 0 -13 5 -13 11 0 7 9 9
23 5 12 -3 30 -6 40 -6z m-264 -1706 c15 -14 -34 -17 -226 -15 -216 2 -274 -5
-132 -15 98 -8 118 -20 49 -29 -30 -4 -62 -12 -71 -18 -9 -6 -24 -7 -35 -2
-11 4 -41 9 -69 10 -27 1 -59 4 -70 8 -11 3 -46 3 -77 -2 -31 -4 -55 -4 -52 1
10 15 -74 8 -91 -8 -13 -13 -18 -14 -31 -3 -9 8 -41 12 -80 12 -35 0 -67 3
-70 8 -7 12 -41 12 -46 0 -1 -4 -60 -6 -130 -3 -104 4 -124 7 -114 18 7 7 33
15 57 17 38 3 37 4 -9 3 -28 -1 -52 2 -52 7 0 4 -5 7 -11 7 -6 0 -9 -7 -5 -15
3 -8 2 -15 -3 -15 -5 0 -11 9 -14 20 -5 20 -2 20 410 20 228 -1 417 0 419 2 5
5 448 -3 453 -8z m-2048 -640 c10 -13 10 -17 -2 -24 -11 -8 -12 -13 -2 -29 14
-22 2 -77 -16 -73 -6 1 -11 -3 -11 -8 0 -6 6 -10 13 -8 13 3 17 -9 10 -29 -3
-7 -2 -21 2 -30 7 -16 9 -15 15 7 l8 25 1 -27 c1 -19 -4 -28 -14 -28 -9 0 -18
-12 -21 -30 -4 -16 -11 -28 -17 -27 -6 1 -12 -16 -13 -37 -2 -22 -7 -42 -13
-45 -5 -4 -13 -20 -17 -36 -4 -17 -10 -34 -13 -40 -4 -5 -6 -25 -5 -42 1 -18
2 -51 3 -74 0 -24 5 -38 11 -34 6 3 10 -3 10 -14 0 -12 -5 -21 -11 -21 -5 0
-7 -5 -3 -11 4 -8 9 -7 15 2 4 7 11 10 15 6 4 -3 1 -13 -6 -22 -10 -13 -10
-19 4 -33 14 -16 14 -21 1 -38 -24 -32 -18 -54 15 -61 24 -4 28 -8 19 -19 -6
-7 -8 -18 -5 -23 8 -12 -45 -41 -74 -41 -16 0 -20 -4 -15 -19 4 -13 -1 -24
-17 -35 -20 -14 -21 -18 -8 -27 11 -8 12 -12 3 -16 -7 -2 -13 -11 -13 -19 0
-10 -12 -14 -40 -14 -37 0 -40 2 -41 28 0 26 -1 26 -9 4 -12 -30 7 -62 37 -62
14 0 23 -6 23 -15 0 -9 -9 -15 -25 -15 -16 0 -25 6 -25 15 0 9 -10 15 -26 15
-23 0 -25 -3 -20 -25 5 -20 3 -25 -14 -25 -11 0 -20 -6 -20 -13 0 -7 -13 -18
-30 -24 -26 -10 -30 -16 -30 -51 0 -60 11 -102 26 -102 8 0 14 -10 14 -22 0
-19 2 -20 10 -8 6 9 10 10 10 3 0 -6 14 -14 30 -18 17 -4 37 -14 46 -22 13
-14 16 -14 29 3 18 25 36 8 44 -43 4 -23 12 -39 21 -39 8 -1 22 -2 30 -3 10
-1 8 -6 -8 -17 -25 -17 -29 -39 -8 -51 12 -7 18 -25 28 -88 2 -11 10 -23 18
-28 8 -4 2 -4 -15 -1 -16 4 -37 8 -45 9 -8 1 -32 8 -53 15 -40 15 -54 41 -44
83 4 12 2 29 -3 37 -7 12 -17 10 -61 -10 -44 -21 -67 -25 -150 -25 -65 0 -102
4 -111 13 -6 6 -27 12 -45 12 -18 0 -33 4 -33 8 0 14 -48 33 -55 22 -4 -6 -11
-10 -17 -10 -6 0 -8 3 -5 7 14 14 -48 33 -114 34 -38 1 -69 5 -69 10 0 5 -9 9
-20 9 -27 0 -36 26 -44 129 -8 90 3 376 13 351 8 -19 41 -22 41 -4 0 8 -6 11
-15 8 -29 -12 -15 17 15 30 17 7 28 15 25 18 -4 3 8 16 24 28 17 12 31 17 31
11 0 -6 -5 -11 -10 -11 -9 0 -9 -22 -1 -59 1 -2 7 2 15 8 8 7 27 14 43 17 l28
4 -22 -19 c-23 -19 -30 -32 -15 -30 21 4 23 -3 6 -22 -19 -21 -18 -21 24 1 23
12 47 31 53 41 5 11 14 19 20 19 23 0 54 35 51 58 -2 12 1 22 7 22 6 0 10 -3
8 -7 -1 -5 1 -9 6 -10 21 -8 39 0 69 33 18 20 60 54 93 77 33 22 76 55 95 74
19 18 40 33 47 33 7 0 13 5 13 10 0 6 9 10 20 10 11 0 20 7 20 15 0 7 8 18 17
24 18 9 20 61 15 291 -3 136 -2 165 7 179 11 18 30 6 26 -17 -1 -9 0 -11 2 -4
3 7 9 10 14 6 5 -3 17 2 26 11 11 11 28 15 50 13 18 -2 33 -1 33 4 0 4 6 5 14
2 8 -3 17 0 22 7 5 9 -1 11 -24 6 -19 -4 -32 -2 -32 3 0 6 5 10 10 10 6 0 10
6 10 13 0 18 56 19 71 1z"/>
<path d="M2939 11587 c-14 -7 -26 -25 -30 -43 -8 -39 -18 -56 -30 -49 -5 4
-12 -1 -15 -10 -6 -13 -9 -14 -23 -3 -9 8 -29 20 -44 28 -16 8 -24 16 -18 18
6 2 11 13 11 25 0 18 -2 19 -10 7 -5 -8 -10 -11 -10 -6 0 5 -7 3 -15 -4 -8 -6
-19 -9 -25 -5 -5 3 -10 2 -10 -3 0 -6 -16 -26 -36 -46 -26 -26 -36 -31 -41
-21 -8 22 -23 18 -23 -4 0 -11 -4 -22 -9 -26 -12 -7 -25 57 -18 85 8 29 -8 24
-35 -10 -13 -17 -32 -40 -43 -51 -30 -29 -122 -89 -139 -89 -7 0 -21 -15 -30
-34 -16 -35 -32 -40 -58 -18 -8 6 -24 9 -36 5 -13 -3 -30 1 -40 8 -39 31 -60
39 -66 24 -8 -21 -29 -19 -60 6 -20 16 -30 18 -40 10 -8 -7 -35 -10 -62 -7
-65 5 -94 -19 -94 -78 0 -23 -4 -47 -9 -55 -7 -11 1 -19 31 -34 l40 -20 17 22
c21 27 110 40 145 22 20 -11 31 -9 77 15 47 24 67 27 150 29 52 1 101 5 109
10 7 4 30 7 51 7 21 -1 44 4 52 12 16 16 81 23 115 12 16 -5 29 -3 42 9 28 26
118 56 145 49 20 -5 82 21 123 51 1 1 -2 24 -7 51 -7 36 -6 57 4 81 16 37 3
49 -36 30z"/>
<path d="M1740 11436 c0 -9 -16 -22 -36 -31 -20 -8 -38 -24 -41 -35 -3 -11
-11 -20 -18 -20 -10 0 -11 -10 -4 -41 13 -57 5 -74 -10 -22 -6 23 -16 45 -22
49 -6 3 -8 13 -4 22 7 20 -52 82 -79 82 -19 0 -19 -1 -1 -13 10 -8 15 -19 11
-25 -3 -5 0 -13 6 -16 9 -4 8 -5 -2 -5 -42 3 -52 -3 -67 -38 -23 -57 -33 -67
-48 -46 -20 27 -45 9 -45 -32 0 -43 -14 -46 -29 -5 -9 28 -31 42 -31 20 0 -5
-4 -10 -10 -10 -5 0 -10 9 -10 19 0 42 -19 28 -45 -34 -16 -36 -32 -65 -37
-65 -13 0 -38 26 -38 41 0 19 -62 2 -82 -22 -10 -12 -18 -18 -18 -14 0 4 -7 2
-15 -5 -8 -7 -13 -16 -10 -20 9 -15 115 -24 128 -11 14 14 107 15 107 0 0 -6
7 -8 15 -5 9 3 56 11 106 17 67 8 94 8 104 -1 10 -8 19 -8 34 -1 11 6 42 11
70 11 27 0 76 7 108 16 32 9 75 19 95 21 l37 5 -14 31 c-7 18 -27 68 -44 112
-17 44 -30 76 -31 71 0 -5 -7 -3 -15 4 -12 10 -15 10 -15 -4z"/>
<path d="M3679 11408 c-15 -53 -26 -67 -35 -45 -9 25 -25 20 -19 -6 3 -12 -1
-38 -9 -57 -8 -19 -15 -27 -16 -17 0 9 -4 17 -9 17 -5 0 -14 12 -20 28 -5 15
-16 35 -24 44 -15 19 -49 18 -55 -1 -3 -9 -7 -9 -18 0 -11 9 -18 9 -26 1 -6
-6 -17 -8 -24 -5 -9 3 -18 -6 -25 -23 l-11 -29 -16 23 c-10 12 -25 33 -34 45
l-17 22 -1 -30 c0 -16 -9 -49 -19 -72 -11 -23 -16 -44 -13 -48 4 -4 -10 2 -30
14 -42 23 -42 23 -29 -11 6 -17 4 -29 -9 -45 -17 -21 -17 -21 -48 31 -18 29
-32 62 -32 75 0 12 -4 20 -9 17 -5 -4 -12 0 -14 6 -4 9 -6 7 -6 -3 -1 -9 -8
-22 -17 -29 -8 -8 -22 -29 -30 -48 -12 -31 -16 -33 -31 -21 -15 13 -16 10 -10
-33 4 -29 3 -48 -3 -48 -6 0 -10 -7 -10 -16 0 -33 -18 -2 -24 43 -4 27 -12 64
-18 83 -8 25 -8 35 1 38 6 2 11 10 11 17 0 15 -41 8 -52 -9 -12 -17 -9 -125 3
-148 16 -29 2 -35 -24 -10 -13 12 -27 19 -30 15 -4 -3 -7 -2 -7 3 0 5 -9 10
-20 11 -15 1 -20 -4 -20 -25 l0 -27 -25 29 c-14 16 -25 39 -26 50 -1 23 -8 68
-12 72 -1 1 -9 -3 -18 -9 -18 -13 -34 -117 -19 -117 6 0 10 -6 10 -14 0 -10
-8 -13 -27 -10 -15 3 -31 8 -35 11 -5 3 -16 -3 -24 -13 -13 -18 -15 -18 -28
-1 -7 9 -17 17 -22 17 -5 0 -14 10 -19 22 -6 13 -18 24 -27 26 -15 3 -18 -5
-18 -51 0 -44 -4 -58 -24 -76 -20 -19 -28 -21 -45 -12 -12 7 -21 18 -21 26 0
8 -9 19 -19 25 -22 11 -42 14 -25 2 13 -9 35 -72 29 -82 -3 -5 4 -6 15 -3 12
3 20 0 20 -7 0 -7 6 -6 16 4 8 9 25 16 37 15 20 -1 20 -2 -3 -9 -23 -7 -23 -8
-3 -9 22 -1 40 -18 29 -28 -3 -3 -11 -1 -19 5 -7 6 -18 7 -26 3 -10 -6 -9 -12
4 -25 9 -9 21 -14 26 -10 6 3 17 0 25 -7 12 -10 12 -14 2 -20 -7 -5 -13 -20
-13 -35 0 -29 -2 -30 -142 -71 -35 -9 -63 -23 -63 -30 0 -7 5 -13 10 -13 17 0
11 -18 -7 -23 -10 -2 -3 -2 16 0 37 5 114 -24 105 -38 -3 -5 0 -9 6 -9 6 0 9
-4 6 -9 -3 -4 6 -6 19 -3 20 3 25 0 25 -17 0 -23 39 -45 63 -35 13 5 37 -53
37 -89 0 -8 22 -26 50 -40 27 -14 74 -41 103 -61 30 -19 67 -41 83 -48 16 -6
41 -20 55 -30 15 -10 39 -22 54 -28 25 -9 27 -9 22 10 -3 11 0 20 6 20 17 0
77 53 77 68 0 19 38 14 43 -5 4 -17 5 -17 6 0 1 10 9 17 22 17 12 0 23 8 26
20 3 11 12 20 19 20 8 0 14 5 14 11 0 6 16 1 35 -11 23 -14 35 -17 35 -9 0 7
2 10 5 7 3 -3 17 -81 31 -174 14 -93 32 -214 41 -269 8 -55 19 -138 23 -185
l7 -85 1 67 c1 37 -5 116 -13 175 -22 153 -42 313 -55 423 -6 52 -15 104 -20
115 -17 37 -44 150 -44 182 0 18 -3 30 -8 27 -4 -3 -8 3 -8 12 0 10 3 14 7 11
3 -4 14 15 24 42 9 28 27 60 38 72 12 13 21 26 21 30 0 4 11 9 24 11 25 5 42
-14 30 -33 -3 -5 2 -16 10 -25 9 -8 16 -24 16 -35 0 -10 6 -19 14 -19 9 0 12
-8 8 -27 -4 -21 -2 -25 12 -20 9 4 16 4 16 1 0 -9 -24 -30 -35 -31 -5 -1 -11
-6 -13 -13 -2 -6 2 -9 9 -8 8 2 15 -7 17 -20 2 -13 8 -20 14 -16 7 4 8 2 4 -5
-6 -8 0 -10 18 -5 20 5 26 2 26 -9 0 -9 7 -20 16 -25 10 -6 16 -25 17 -55 2
-42 4 -46 23 -41 12 3 25 1 28 -5 9 -14 43 -14 51 -1 6 10 17 106 30 270 4 40
12 71 23 83 9 11 17 31 17 45 1 19 7 28 20 31 11 2 32 16 46 32 14 16 31 29
37 29 7 0 12 9 12 20 0 10 7 23 16 28 12 7 13 11 5 17 -7 4 -9 11 -3 18 5 7
12 20 15 29 4 13 1 16 -16 12 -18 -3 -27 6 -47 43 -14 26 -25 50 -25 53 -3 28
-19 85 -30 107 -8 15 -15 36 -15 46 0 32 -19 17 -31 -25z"/>
<path d="M3928 11359 c-16 -9 -13 -15 27 -57 25 -26 43 -53 40 -59 -5 -15 32
-53 52 -53 7 0 13 -5 13 -12 0 -6 3 -8 7 -5 3 4 17 0 31 -9 13 -8 26 -13 29
-10 4 3 7 35 7 71 1 49 -2 64 -12 60 -7 -2 -17 6 -22 20 -6 15 -17 25 -29 25
-11 0 -23 5 -26 10 -3 6 -15 10 -26 10 -10 0 -19 5 -19 10 0 13 -50 12 -72 -1z"/>
<path d="M4160 11285 c0 -8 -4 -15 -10 -15 -16 0 -12 -70 5 -86 8 -9 15 -12
15 -7 0 5 26 9 58 10 113 3 137 7 140 24 1 8 -9 21 -23 29 -14 7 -25 19 -25
27 0 7 -4 13 -10 13 -5 0 -10 -4 -10 -10 0 -5 -13 -10 -30 -10 -16 0 -30 4
-30 10 0 5 -13 7 -30 4 -23 -5 -30 -3 -30 10 0 9 -4 16 -10 16 -5 0 -10 -7
-10 -15z"/>
<path d="M1169 11089 c-47 -56 -60 -84 -61 -130 0 -46 18 -79 58 -99 16 -8 31
-17 34 -20 9 -9 44 -29 75 -43 34 -16 65 -48 69 -70 1 -8 8 -22 15 -31 7 -9
10 -16 7 -16 -4 0 2 -13 13 -29 26 -36 28 -60 4 -40 -13 11 -17 11 -20 2 -3
-7 -11 -13 -19 -13 -8 0 -14 -3 -14 -7 1 -11 26 -43 34 -43 4 0 16 -9 28 -20
12 -11 35 -26 51 -32 28 -13 28 -13 23 -83 -3 -49 -3 -59 3 -32 4 21 17 47 27
57 17 17 22 18 44 6 69 -38 212 -106 223 -106 7 0 23 -9 37 -20 14 -11 34 -19
45 -19 16 1 16 2 -5 9 -15 5 -18 8 -8 9 26 2 48 -10 48 -26 0 -12 3 -12 22 1
12 9 30 16 39 16 10 0 19 6 22 13 3 9 7 9 17 0 9 -8 23 -7 56 4 36 12 43 18
33 29 -8 10 -8 14 0 14 6 0 11 7 11 15 0 9 -17 20 -46 27 -26 7 -49 18 -51 25
-3 7 -14 13 -24 13 -10 0 -19 6 -19 13 0 7 -22 24 -50 38 -27 13 -50 30 -50
37 0 6 -8 12 -18 12 -9 0 -22 10 -27 22 -12 26 -35 36 -35 15 0 -8 -7 -18 -16
-21 -24 -9 -85 4 -91 20 -7 18 -28 18 -47 -1 -9 -9 -17 -11 -21 -5 -3 5 -1 10
4 10 6 0 11 5 11 12 0 9 -3 9 -12 0 -18 -18 -74 -14 -127 8 -42 19 -49 27 -66
72 -19 54 -59 108 -80 108 -7 0 -25 11 -41 25 l-29 25 26 53 c38 74 40 92 16
145 -14 31 -22 41 -25 30 -2 -10 -7 -18 -12 -18 -5 0 -14 -34 -21 -75 -7 -41
-16 -75 -20 -75 -14 0 -14 46 0 128 18 103 8 118 -40 61z"/>
<path d="M6865 11022 c4 -10 0 -12 -11 -8 -18 7 -17 -17 5 -139 21 -114 16
-108 53 -72 33 33 41 56 23 69 -5 4 -1 8 10 8 11 0 32 14 47 30 14 17 30 30
36 30 13 0 23 -79 15 -124 -4 -28 -10 -36 -26 -36 -11 0 -29 -7 -39 -17 -17
-15 -18 -15 -18 7 0 19 -2 20 -15 10 -10 -9 -15 -9 -15 -1 0 6 -4 11 -9 11
-15 0 -29 -87 -21 -124 10 -46 19 -59 33 -48 7 4 25 9 42 10 16 1 34 7 39 12
6 6 21 10 33 10 13 0 36 6 52 14 15 8 46 16 70 19 29 2 46 10 57 26 9 13 25
21 37 21 47 -4 63 9 64 51 1 23 7 46 12 53 13 16 4 26 -21 26 -11 0 -17 4 -14
9 3 5 -4 11 -16 14 -12 4 -25 2 -28 -4 -4 -5 -14 -7 -23 -3 -12 4 -20 -2 -28
-20 -7 -14 -16 -26 -21 -26 -12 0 -10 10 7 26 35 35 12 44 -37 14 -24 -14 -34
-16 -40 -7 -6 9 -8 9 -8 0 0 -7 -7 -10 -15 -7 -9 4 -15 0 -15 -10 0 -9 -4 -16
-10 -16 -13 0 -13 6 0 31 9 15 7 19 -6 19 -13 0 -14 3 -5 14 8 10 9 16 1 21
-19 12 -11 38 10 32 11 -3 20 -1 20 4 0 5 -7 9 -15 9 -8 0 -15 5 -15 10 0 6 7
10 16 10 8 0 13 4 9 10 -3 5 -13 6 -22 3 -10 -4 -14 -2 -9 5 3 6 2 13 -4 17
-5 3 -10 2 -10 -2 0 -5 -21 -15 -46 -22 -53 -16 -79 -7 -78 26 0 15 -6 20 -28
20 -21 0 -27 -4 -23 -15z"/>
<path d="M18 10433 c-21 -5 -24 -29 -5 -36 9 -4 9 -6 0 -6 -9 -1 -13 -23 -13
-74 l0 -73 32 1 c24 0 36 6 45 25 l13 25 0 -32 c0 -17 4 -34 9 -37 5 -4 7 4 3
16 -3 14 -2 19 6 14 7 -4 12 -2 12 4 0 7 7 9 16 6 13 -5 15 -2 11 15 -3 12 0
28 9 36 20 20 18 32 -8 42 -31 12 -68 48 -68 66 0 15 -25 18 -62 8z"/>
<path d="M627 10354 c-3 -4 -57 -6 -120 -5 -114 1 -114 1 -126 -25 -13 -29 -6
-47 9 -24 8 13 10 12 10 -2 0 -11 10 -20 28 -23 68 -15 64 -16 60 15 l-4 28
73 -5 c51 -4 77 -2 88 7 10 8 15 9 15 1 0 -6 -4 -11 -10 -11 -5 0 -10 -7 -10
-15 0 -10 10 -15 30 -15 17 0 30 2 30 4 0 3 -9 21 -21 40 -20 34 -38 44 -52
30z"/>
<path d="M0 10021 l0 -189 40 2 c22 1 42 5 45 8 4 3 2 22 -3 42 -9 31 -8 36 9
41 21 7 30 35 26 82 -2 18 -1 30 2 27 7 -7 28 78 23 90 -3 4 -9 2 -14 -5 -6
-10 -7 -3 -4 19 2 17 1 32 -2 33 -4 0 -17 2 -29 3 -13 2 -31 10 -41 19 -10 9
-26 17 -35 17 -15 0 -17 -19 -17 -189z"/>
<path d="M400 10201 c0 -5 -9 -11 -21 -14 -12 -3 -19 -12 -17 -19 3 -9 26 -13
81 -12 73 0 76 -1 61 -17 -13 -14 -21 -16 -41 -8 -14 5 -35 6 -47 2 -11 -4
-28 -7 -36 -7 -8 -1 -17 -15 -21 -33 -3 -18 -13 -43 -21 -55 -17 -26 -13 -48
9 -48 8 0 23 -10 33 -22 15 -19 21 -21 31 -10 7 6 21 12 31 12 10 0 18 7 18
16 0 13 7 15 31 10 19 -4 38 -1 46 6 11 9 22 9 47 0 18 -7 56 -13 84 -13 41
-1 51 -5 55 -21 6 -22 27 -15 27 8 0 8 -4 12 -10 9 -6 -4 -7 1 -3 11 5 13 2
15 -18 9 l-24 -7 23 19 c20 19 32 50 15 40 -5 -3 -14 1 -21 9 -7 8 -8 14 -2
14 5 0 10 7 10 16 0 8 5 12 10 9 6 -3 10 1 10 11 0 14 -7 16 -50 11 -27 -3
-50 -2 -50 3 0 5 -9 12 -20 15 -26 8 -26 29 0 22 10 -3 21 0 23 7 3 8 8 7 20
-2 13 -11 19 -11 36 0 34 21 26 38 -18 38 -22 0 -43 -5 -46 -10 -4 -6 -21 -8
-42 -4 -35 7 -36 6 -31 -20 4 -20 1 -26 -12 -26 -13 0 -16 6 -12 25 5 29 -18
35 -38 10 -7 -9 -16 -12 -19 -8 -7 10 -58 33 -71 33 -6 0 -10 -4 -10 -9z"/>
<path d="M1144 10080 c-5 -5 -51 -11 -102 -12 -68 -1 -92 -5 -92 -15 0 -7 7
-13 15 -13 18 0 20 -27 3 -33 -26 -9 -1 -16 35 -10 36 5 50 27 25 36 -8 2 -9
8 -4 13 5 5 11 4 13 -3 3 -7 17 -10 39 -6 31 5 35 3 32 -12 -3 -16 5 -19 60
-21 35 -1 69 -5 76 -7 18 -7 40 9 31 23 -4 6 -16 9 -27 7 -23 -6 -48 1 -48 14
0 5 18 9 40 9 29 0 40 -4 40 -15 0 -19 10 -19 38 1 36 25 26 34 -38 34 -33 0
-60 4 -60 10 0 13 -63 13 -76 0z"/>
<path d="M560 9965 c0 -25 -14 -33 -25 -15 -3 6 -1 10 6 10 9 0 10 3 3 10 -10
10 -84 2 -84 -10 0 -4 -13 -13 -30 -20 -16 -7 -30 -16 -30 -21 0 -5 -7 -9 -15
-9 -8 0 -15 9 -15 20 0 11 -5 20 -10 20 -17 0 -24 -31 -10 -40 9 -6 6 -9 -11
-12 -18 -2 -25 -10 -27 -32 -4 -28 -3 -28 40 -21 24 4 46 13 50 19 5 8 8 7 8
-2 0 -8 6 -12 12 -10 7 3 24 -1 37 -8 18 -10 29 -10 38 -2 7 6 24 8 38 6 16
-3 25 -1 25 7 0 15 22 25 57 25 21 0 23 -3 14 -14 -7 -9 -8 -17 -3 -20 8 -5
22 14 22 30 0 2 -18 12 -41 20 -26 11 -36 20 -29 24 8 5 9 13 4 21 -5 8 -7 22
-6 32 2 9 -2 17 -7 17 -6 0 -11 -11 -11 -25z"/>
<path d="M368 9715 c-3 -3 -22 -6 -42 -7 -28 -1 -36 -5 -34 -17 2 -9 11 -15
21 -13 10 2 17 -4 17 -13 0 -9 -4 -14 -9 -10 -6 3 -15 -3 -20 -14 -17 -30 -13
-44 9 -38 11 3 20 1 20 -4 0 -5 -9 -9 -19 -9 -20 0 -37 -32 -27 -49 3 -5 18
-8 33 -8 16 0 22 2 16 4 -27 10 -13 33 20 33 25 0 29 3 17 11 -11 8 -1 9 38 4
60 -7 142 2 142 16 0 5 -7 9 -15 9 -8 0 -15 5 -15 11 0 6 7 9 15 5 8 -3 15 -2
15 3 0 5 20 12 45 15 25 4 57 14 73 22 l27 16 -27 -5 c-16 -2 -28 0 -28 4 0
12 -34 11 -46 -1 -5 -5 -27 -10 -49 -11 -22 -2 -43 -8 -47 -13 -5 -7 -8 -7 -8
2 0 15 -25 16 -50 0 -16 -11 -23 -10 -37 6 -10 10 -12 15 -4 11 7 -4 38 -2 68
6 49 11 53 14 37 26 -17 12 -125 19 -136 8z"/>
<path d="M2059 9335 c-1 -3 -2 -10 -3 -17 0 -6 -12 -13 -25 -15 -14 -2 -30 -8
-38 -14 -9 -9 -17 -8 -27 1 -18 14 -62 9 -58 -8 1 -6 -8 -12 -20 -13 -65 -3
-73 -5 -73 -19 0 -12 12 -14 64 -11 35 2 78 7 94 12 19 5 33 5 37 -1 3 -5 21
-5 45 2 50 13 75 14 99 3 11 -5 17 -5 14 1 -3 5 0 15 8 22 12 11 15 10 20 -2
6 -17 34 -10 34 9 0 23 -37 47 -57 37 -10 -5 -23 -7 -30 -5 -6 2 -14 -1 -18
-6 -9 -16 -25 -13 -25 3 0 16 -38 35 -41 21z"/>
<path d="M3104 8707 l1 -298 -222 227 c-123 124 -223 223 -223 220 0 -8 48
-64 83 -95 15 -14 27 -29 27 -33 0 -4 79 -88 175 -185 167 -170 175 -180 175
-218 1 -61 26 -226 55 -360 41 -193 75 -419 76 -513 l2 -87 7 90 c8 94 5 124
-45 390 -38 206 -63 362 -70 453 l-8 81 34 37 c80 88 189 201 246 257 35 33
61 62 58 65 -8 8 -192 -169 -288 -278 l-57 -65 -1 40 c-1 22 -4 74 -7 115 -3
41 -8 161 -12 265 -6 174 -7 165 -6 -108z"/>
<path d="M0 8391 l0 -550 21 -15 c16 -10 27 -12 40 -6 12 7 19 6 21 -1 4 -12
117 -16 158 -6 14 4 55 9 92 11 48 3 74 10 93 24 15 12 33 18 41 15 9 -3 21 3
30 16 8 11 22 21 30 21 8 0 13 6 11 13 -1 6 4 11 11 10 6 -2 12 3 12 10 0 9
-17 13 -52 13 -104 2 -118 4 -118 18 0 7 7 19 15 26 9 7 14 19 11 26 -3 7 -1
16 5 20 5 3 7 15 3 26 -5 17 -3 18 14 9 26 -14 33 -14 29 1 -3 17 116 37 179
31 36 -4 61 -1 87 12 20 9 43 15 51 12 15 -6 33 9 35 28 1 6 15 10 31 10 20 0
30 5 31 15 1 8 5 4 9 -10 5 -17 8 -19 9 -7 1 9 8 17 16 17 21 0 19 16 -2 24
-10 3 -25 10 -33 15 -8 5 -22 12 -32 15 -19 6 -36 68 -19 74 6 2 -2 14 -17 27
-28 23 -52 81 -52 123 0 21 66 92 87 92 7 0 17 10 24 21 13 24 -6 57 -54 92
-22 17 -29 18 -42 7 -20 -17 -3 -30 32 -24 12 2 23 0 23 -5 0 -14 -21 -17 -80
-10 -30 3 -49 6 -42 7 6 1 12 8 12 16 0 16 -41 29 -64 20 -9 -3 -16 -1 -16 5
0 6 12 11 26 11 14 0 34 5 45 10 13 7 19 7 19 0 0 -5 14 -10 30 -10 17 0 30 5
30 11 0 7 10 9 25 7 27 -6 29 0 16 56 l-6 28 -117 0 c-107 -1 -116 1 -121 19
-5 20 -27 27 -27 8 0 -8 -5 -7 -16 2 -13 10 -17 10 -24 -1 -7 -11 -11 -11 -24
-1 -9 8 -16 22 -16 32 0 11 -5 19 -11 19 -5 0 -7 -4 -4 -10 3 -5 0 -11 -7 -11
-18 -2 -21 -1 -40 6 -12 5 -18 2 -18 -8 0 -8 5 -17 12 -19 9 -3 9 -6 0 -12 -7
-4 -12 -2 -12 3 0 6 -18 11 -39 11 -22 0 -43 5 -46 10 -3 6 -19 10 -34 10 -15
0 -32 5 -37 10 -7 7 -9 2 -6 -18 3 -26 1 -28 -32 -29 -35 -1 -48 10 -23 20 6
3 -3 6 -20 6 -31 1 -49 21 -20 21 20 0 17 29 -3 35 -10 3 -25 2 -35 -2 -14 -5
-17 -3 -12 10 3 9 2 19 -3 22 -6 4 -10 -1 -10 -9 0 -22 -13 -20 -28 4 -7 11
-21 20 -32 20 -19 0 -19 -10 -20 -549z"/>
<path d="M1179 8810 c-6 -4 -27 -6 -45 -5 -19 2 -49 -1 -67 -6 -29 -8 -34 -13
-29 -34 2 -14 8 -25 13 -25 5 0 9 -8 9 -17 1 -17 1 -17 11 0 6 9 15 14 21 11
9 -6 38 -7 138 -5 16 1 35 7 42 15 8 8 21 11 33 7 32 -10 150 -7 153 4 2 6 8
15 12 20 16 19 -4 32 -57 37 -29 3 -53 2 -53 -1 0 -4 -19 -5 -42 -3 -36 4 -40
2 -34 -13 6 -16 4 -16 -16 -3 -29 19 -73 27 -89 18z"/>
<path d="M1120 8671 c0 -5 5 -11 11 -13 15 -5 0 -38 -18 -38 -8 0 -12 4 -8 9
3 5 1 12 -5 16 -5 3 -10 1 -10 -4 0 -6 -7 -11 -15 -11 -10 0 -15 -10 -15 -32
0 -18 -3 -43 -6 -55 -5 -17 1 -30 23 -50 39 -38 63 -99 60 -150 -1 -24 2 -41
8 -40 6 1 9 8 7 17 -1 8 9 -3 23 -25 l25 -40 0 40 0 40 51 2 c40 1 49 -2 45
-13 -3 -9 1 -14 13 -14 11 0 21 5 23 11 4 11 18 13 148 24 76 7 140 -3 140
-21 0 -9 10 -14 29 -14 16 0 31 -6 34 -12 4 -10 7 -10 18 0 19 18 32 15 65
-13 16 -14 38 -28 49 -31 10 -4 25 -13 33 -20 18 -18 32 -18 32 1 0 8 3 15 6
15 3 0 12 -7 20 -15 9 -8 11 -15 5 -15 -6 0 -11 -9 -11 -21 0 -11 5 -17 10
-14 6 3 10 0 10 -7 0 -11 2 -11 9 0 4 7 12 12 17 11 23 -4 34 3 34 20 0 11 6
21 13 24 22 8 -1 19 -42 20 -23 1 -41 5 -41 10 0 4 7 7 15 7 21 0 19 13 -5 28
-12 7 -17 18 -13 28 4 12 2 15 -8 12 -8 -3 -13 -17 -12 -34 l2 -29 -10 28 c-6
16 -18 27 -29 27 -10 0 -22 5 -26 12 -5 8 0 9 14 6 15 -4 25 0 31 10 8 14 13
15 30 5 29 -18 31 -17 31 21 l0 35 63 -6 c34 -3 68 -10 75 -15 8 -7 12 -7 12
1 0 7 5 9 10 6 6 -4 8 -10 5 -15 -10 -16 16 -22 46 -9 25 10 30 17 26 36 -5
25 10 32 19 8 8 -19 38 -19 58 0 10 11 25 13 53 9 36 -6 61 -9 111 -12 12 -1
22 -7 22 -12 0 -7 -13 -8 -34 -5 -20 4 -36 2 -40 -4 -4 -6 -23 -11 -43 -11
-53 0 -34 -10 27 -15 29 -2 56 -7 59 -12 3 -4 13 -8 21 -9 8 0 32 -4 53 -7 32
-5 38 -3 35 11 -3 12 -13 16 -33 15 -17 -1 -22 1 -12 4 9 2 17 8 17 12 0 4 13
6 28 3 27 -4 29 -2 24 30 -3 18 -11 37 -18 41 -8 4 -14 15 -14 22 0 8 -5 15
-11 15 -5 0 -7 5 -3 11 8 13 20 1 27 -26 3 -11 5 -5 5 15 0 19 -5 54 -11 78
l-12 43 -667 1 c-525 2 -669 5 -672 15 -3 7 -1 15 5 18 5 4 7 11 4 16 -8 12
-45 12 -45 0z"/>
<path d="M147 7693 c-12 -11 -8 -23 8 -23 20 0 19 -16 -2 -24 -11 -5 -23 0
-33 14 l-16 21 -14 -26 c-8 -14 -20 -23 -27 -21 -7 3 -15 1 -18 -4 -4 -6 -15
-10 -26 -10 -10 0 -19 -5 -19 -11 0 -7 16 -9 48 -5 26 4 72 7 102 7 30 0 62 2
70 6 8 3 35 5 59 3 35 -1 43 1 38 13 -4 11 0 13 14 10 28 -8 23 4 -8 20 -19 9
-41 11 -68 6 -32 -6 -44 -3 -61 12 -21 20 -36 24 -47 12z"/>
<path d="M160 4968 c0 -7 -21 -9 -55 -6 -34 3 -52 1 -48 -5 4 -6 -3 -8 -15 -5
-12 4 -20 2 -16 -3 3 -5 1 -9 -4 -9 -5 0 7 -17 27 -39 36 -39 36 -39 109 -36
40 1 75 -1 77 -5 3 -4 39 -8 81 -9 45 -1 73 2 70 8 -3 5 -15 7 -26 4 -11 -3
-20 0 -20 6 0 6 12 11 26 11 15 0 44 5 66 12 33 10 41 9 49 -3 8 -12 10 -12
19 1 9 13 12 13 21 -2 5 -10 15 -18 20 -18 6 0 8 4 5 8 -3 5 22 6 55 4 39 -3
59 -1 59 7 0 6 -13 11 -30 11 -17 0 -30 5 -30 13 0 8 16 12 48 13 26 0 57 3
69 7 13 3 25 2 28 -4 10 -15 25 -10 25 9 0 14 2 14 9 3 13 -19 50 -21 83 -5
32 17 38 17 38 4 0 -5 -9 -10 -21 -10 -11 0 -18 -4 -15 -8 3 -5 19 -7 36 -4
16 2 30 0 30 -5 0 -6 11 -9 24 -8 14 2 27 -3 30 -12 9 -22 22 -8 21 24 0 27
-3 29 -62 38 -34 6 -65 13 -69 18 -11 11 -36 9 -29 -3 7 -12 4 -12 -114 -10
-75 1 -92 -1 -85 -12 6 -10 5 -11 -7 -2 -17 13 -74 11 -112 -4 -21 -9 -44 -8
-98 3 -39 8 -98 16 -132 17 l-62 2 80 6 c78 6 77 7 -37 7 -75 1 -118 -3 -118
-9z"/>
<path d="M8639 2596 c-2 -3 -236 -8 -519 -12 -283 -3 -517 -9 -520 -12 -7 -7
1129 9 1275 18 l120 7 -176 1 c-97 1 -178 0 -180 -2z"/>
<path d="M1603 2543 c-882 -2 -1603 -6 -1603 -11 0 -9 2479 -4 3630 7 l835 8
-630 -1 c-346 -1 -1351 -2 -2232 -3z"/>
</g>
</svg>
